<svg width="35" height="35" viewBox="0 0 35 35" fill="none" xmlns="http://www.w3.org/2000/svg">
<path d="M29.1539 28.9125C30.004 28.4247 31.4086 26.4737 32 25.4981V25.0801L30.5585 24C28.1437 25.1613 24.0696 27.5247 27.0471 27.1705C30.8541 26.7176 28.0888 29.5236 29.1539 28.9125Z" fill="#D834FF"/>
<path d="M31 27C28.9362 29.9076 23.3686 33.8873 19.2321 34.881C17.4643 35.3057 26.2216 34.9958 31 27Z" fill="url(#paint0_linear_22_259)"/>
<path d="M33.8609 23.0333C34.3473 21.9933 33.4421 21.2444 32.9287 21C31.4832 21.8889 28.965 23.7 30.4565 23.8333C31.9479 23.9667 32.564 24.6667 32.6856 25C32.8747 24.7778 33.3746 24.0733 33.8609 23.0333Z" fill="#FF62FE"/>
<path d="M8.35865 24.4557C3.66676 27.4869 3.65634 29.0886 4.29757 29.6203L5.33071 30L10.6742 29.0886L23 21C21.1951 21.1646 16.7516 21.957 13.4173 23.8101C11.5292 24.8594 11.7191 24.1236 12.4554 23.2405C13.3104 22.2152 13.061 21.4177 8.35865 24.4557Z" fill="url(#paint1_linear_22_259)"/>
<path d="M31.8964 12.8429C30.4408 12.0127 26.0256 12.0614 24 12.1895L25.0917 9.07619L27.4569 8L32.7333 9.57585C33.0608 11.0108 33.3519 13.6731 31.8964 12.8429Z" fill="#D834FF"/>
<path d="M32.6893 9.3726C31.9874 6.59107 28.7022 6.05795 27.1123 6C25.926 7.18215 23.9495 9.47691 25.6813 9.05968C27.4131 8.64245 30.9525 9.55804 32.5058 10.068C32.8237 10.914 33.335 11.9316 32.6893 9.3726Z" fill="#FF62FE"/>
<path d="M11.5926 34.0277C10.5468 33.968 8.70655 32.8962 8 32.3304L10.0837 30.8914L22.4424 25.0985L33.4718 12C34.0945 12.2583 35.658 14.7218 34.6933 19.8591C33.7233 25.0248 33.7233 20.1543 33.7233 20.1543C33.6155 20.3388 33.2922 21.918 29.6995 26.3162C25.2087 31.8139 15.8679 34.4705 14.359 34.8394C12.7782 35.226 9.76039 34.8394 12.1315 34.4705C16.0973 33.8534 12.886 34.1015 11.5926 34.0277Z" fill="url(#paint2_linear_22_259)"/>
<path d="M8.66504 2.22238C11.1603 0.416854 15.8328 -0.0713691 17.8755 0.00811718L18.6828 0.212517C20.86 0.507752 24.1701 1.26036 20.0038 1.13229C14.4628 0.961959 5.4818 4.52568 8.66504 2.22238Z" fill="url(#paint3_linear_22_259)"/>
<path d="M4.05789 7.86534C3.49802 7.15045 7.13713 4.25206 9.02666 2.89222C8.81678 3.39732 9.27167 3.24966 9.51661 3.08648C10.7413 2.2706 13.6316 1.21379 12.8758 2.89222C11.931 4.99026 4.75771 8.75895 4.05789 7.86534Z" fill="url(#paint4_linear_22_259)"/>
<path d="M22.7584 21.0967C32.2202 14.9251 33.6438 9.85387 33.0302 8C33.472 9.00468 34.8715 11.6266 34.9814 12.1264C35.0919 12.6287 34.6869 13.4181 34.3555 14.1357C33.8253 15.2839 31.7342 18.9295 25.0778 24.1825C16.7573 30.7488 8.58426 31 8.06876 31C7.63942 31 4.43702 28.2393 5.08665 28.3448C5.52844 28.4165 7.12381 28.4405 7.84786 28.3448C8.7314 28.228 13.2048 27.3282 22.7584 21.0967Z" fill="url(#paint5_linear_22_259)"/>
<path d="M9.50929 7.61426C3.2367 10.3018 0.51825 13.0213 0 14.1717L0.180785 14.5858L3.94111 15L19.2355 9.99561C20.4287 7.95935 21.1085 4.63231 14.282 7.61426C8.17148 10.2835 10.5217 8.47712 13.4504 7.02761C14.8244 6.27568 15.8729 4.88767 9.50929 7.61426Z" fill="url(#paint6_linear_22_259)"/>
<path d="M0.938503 21.9873C0.245455 21.8717 0.0240642 19.435 0 18.2311L5.37834 16.1724L17.4345 10.4297L21.4773 4.50653C20.3824 3.09795 19.1215 0.17852 22.4519 1.21985C26.4947 2.48392 27 3.10599 27 5.44555C27 8.00987 25.4479 10.5742 23.3182 12.8496C20.893 15.4408 16.6769 17.0695 17.9759 15.8473C20.3944 13.5719 20.4305 13.283 19.8168 13.5719C19.5401 13.6683 18.4596 14.3448 16.2072 15.8473C13.9548 17.3498 8.51872 20.0731 5.70321 20.976C4.36765 21.4043 1.63155 22.1029 0.938503 21.9873Z" fill="url(#paint7_linear_22_259)"/>
<path d="M15.8825 7.70511C22.8856 2.64196 20.1679 0.484098 17.9337 0.0380583C20.0141 -0.164468 21.9993 0.490955 22.7318 0.833696C24.1237 1.48467 25.8085 4.52262 19.1058 9.94736C12.5154 15.2811 3.94214 18.3016 0.0230689 17.9761C-0.0623943 16.4572 0.0962285 13.9618 0.389275 14.1064C1.20047 14.5066 7.12866 14.034 15.8825 7.70511Z" fill="url(#paint8_linear_22_259)"/>
<ellipse cx="1.5" cy="0.5" rx="1.5" ry="0.5" transform="matrix(0.89287 -0.450314 0.455847 0.890058 14 17)" fill="url(#paint9_linear_22_259)"/>
<ellipse cx="3.5" cy="0.5" rx="3.5" ry="0.5" transform="matrix(0.942385 -0.33453 0.339118 0.940744 18 34)" fill="url(#paint10_linear_22_259)"/>
<defs>
<linearGradient id="paint0_linear_22_259" x1="30.7147" y1="27.3826" x2="19.0769" y2="34.2919" gradientUnits="userSpaceOnUse">
<stop stop-color="#85A0FF"/>
<stop offset="1" stop-color="#009AFF"/>
</linearGradient>
<linearGradient id="paint1_linear_22_259" x1="22.3588" y1="21" x2="3.90699" y2="28.5643" gradientUnits="userSpaceOnUse">
<stop stop-color="#FF67F5"/>
<stop offset="1" stop-color="#7A47FF"/>
</linearGradient>
<linearGradient id="paint2_linear_22_259" x1="35.0166" y1="14.878" x2="10.1737" y2="33.6442" gradientUnits="userSpaceOnUse">
<stop stop-color="#DB04B1"/>
<stop offset="1" stop-color="#029FED"/>
</linearGradient>
<linearGradient id="paint3_linear_22_259" x1="18.6461" y1="0.246577" x2="8.98033" y2="2.90825" gradientUnits="userSpaceOnUse">
<stop stop-color="#B26EFF"/>
<stop offset="1" stop-color="#4944FF"/>
</linearGradient>
<linearGradient id="paint4_linear_22_259" x1="12.141" y1="2.93109" x2="3.72605" y2="7.08288" gradientUnits="userSpaceOnUse">
<stop stop-color="#FF66DF"/>
<stop offset="1" stop-color="#2C75FF"/>
</linearGradient>
<linearGradient id="paint5_linear_22_259" x1="34.3924" y1="10.4399" x2="7.56277" y2="30.4001" gradientUnits="userSpaceOnUse">
<stop stop-color="#FD02C7"/>
<stop offset="1" stop-color="#01ADFF"/>
</linearGradient>
<linearGradient id="paint6_linear_22_259" x1="20" y1="6" x2="15.5404" y2="17.7425" gradientUnits="userSpaceOnUse">
<stop stop-color="#5C8FFF"/>
<stop offset="1" stop-color="#C14BFF"/>
</linearGradient>
<linearGradient id="paint7_linear_22_259" x1="25.2674" y1="2.26721" x2="0.531382" y2="20.3482" gradientUnits="userSpaceOnUse">
<stop stop-color="#E000AF"/>
<stop offset="1" stop-color="#00A0ED"/>
</linearGradient>
<linearGradient id="paint8_linear_22_259" x1="22.0359" y1="0.616646" x2="0.210025" y2="16.248" gradientUnits="userSpaceOnUse">
<stop stop-color="#FF00C6"/>
<stop offset="1" stop-color="#00ACFF"/>
</linearGradient>
<linearGradient id="paint9_linear_22_259" x1="3" y1="0" x2="2.61082" y2="1.38342" gradientUnits="userSpaceOnUse">
<stop stop-color="#5C8FFF"/>
<stop offset="1" stop-color="#C14BFF"/>
</linearGradient>
<linearGradient id="paint10_linear_22_259" x1="6.42518" y1="0.362691" x2="0.32724" y2="0.764795" gradientUnits="userSpaceOnUse">
<stop stop-color="#DD18CF"/>
<stop offset="1" stop-color="#04ACFF"/>
</linearGradient>
</defs>
</svg>
