<svg width="35" height="35" viewBox="0 0 35 35" fill="none" xmlns="http://www.w3.org/2000/svg">
<path d="M13.854 20.0521C13.854 21.4667 14.9478 22.6042 16.2894 22.6042H19.0311C20.1977 22.6042 21.1457 21.6125 21.1457 20.3729C21.1457 19.0458 20.5624 18.5646 19.7019 18.2583L15.3123 16.7271C14.4519 16.4208 13.8686 15.9542 13.8686 14.6125C13.8686 13.3875 14.8165 12.3813 15.9832 12.3813H18.7248C20.0665 12.3813 21.1603 13.5188 21.1603 14.9333" stroke="white" stroke-width="1.5" stroke-linecap="round" stroke-linejoin="round"/>
<path d="M17.5 10.9375V24.0625" stroke="white" stroke-width="1.5" stroke-linecap="round" stroke-linejoin="round"/>
<path d="M32.0832 17.5C32.0832 25.55 25.5498 32.0833 17.4998 32.0833C9.44984 32.0833 2.9165 25.55 2.9165 17.5C2.9165 9.45 9.44984 2.91666 17.4998 2.91666" stroke="white" stroke-width="1.5" stroke-linecap="round" stroke-linejoin="round"/>
<path d="M32.0833 8.75V2.91666H26.25" stroke="white" stroke-width="1.5" stroke-linecap="round" stroke-linejoin="round"/>
<path d="M24.7915 10.2083L32.0832 2.91666" stroke="white" stroke-width="1.5" stroke-linecap="round" stroke-linejoin="round"/>
</svg>
