<svg width="32" height="32" viewBox="0 0 32 32" fill="none" xmlns="http://www.w3.org/2000/svg">
<path d="M13.144 15C13.0539 14.991 12.9458 14.991 12.8467 15C10.7027 14.9278 9 13.1691 9 11.0045C9 8.79481 10.7837 7 12.9999 7C15.207 7 16.9998 8.79481 16.9998 11.0045C16.9908 13.1691 15.2881 14.9278 13.144 15Z" stroke="white" stroke-width="1.5" stroke-linecap="round" stroke-linejoin="round"/>
<path d="M20.1432 8C22.281 8 24 9.57 24 11.5C24 13.39 22.3471 14.93 20.2865 15C20.1983 14.99 20.0992 14.99 20 15" stroke="white" stroke-width="1.5" stroke-linecap="round" stroke-linejoin="round"/>
<path d="M8.72984 18.2734C6.42339 19.7765 6.42339 22.2259 8.72984 23.7196C11.3508 25.4268 15.6492 25.4268 18.2702 23.7196C20.5766 22.2166 20.5766 19.7672 18.2702 18.2734C15.6587 16.5755 11.3603 16.5755 8.72984 18.2734Z" stroke="white" stroke-width="1.5" stroke-linecap="round" stroke-linejoin="round"/>
<path d="M23 24C23.6901 23.825 24.3419 23.4867 24.8786 22.985C26.3738 21.62 26.3738 19.3683 24.8786 18.0033C24.3514 17.5133 23.7093 17.1867 23.0288 17" stroke="white" stroke-width="1.5" stroke-linecap="round" stroke-linejoin="round"/>
</svg>
