<svg xmlns="http://www.w3.org/2000/svg" width="35" height="35" viewBox="0 0 35 35" fill="none">
<path d="M32.0835 8.75V12.2792C32.0835 14.5833 30.6252 16.0417 28.321 16.0417H23.3335V5.84791C23.3335 4.22916 24.6606 2.91666 26.2793 2.91666C27.8689 2.93125 29.3272 3.57291 30.3772 4.62291C31.4272 5.68749 32.0835 7.14583 32.0835 8.75Z" stroke="white" stroke-width="1.5" stroke-miterlimit="10" stroke-linecap="round" stroke-linejoin="round"/>
<path d="M2.9165 10.2083V30.625C2.9165 31.8354 4.28734 32.5208 5.24984 31.7917L7.74358 29.925C8.32692 29.4875 9.14358 29.5458 9.66858 30.0708L12.0894 32.5062C12.6582 33.075 13.5915 33.075 14.1603 32.5062L16.6103 30.0562C17.1207 29.5458 17.9373 29.4875 18.5061 29.925L20.9998 31.7917C21.9623 32.5063 23.3332 31.8208 23.3332 30.625V5.83333C23.3332 4.22916 24.6457 2.91666 26.2498 2.91666H10.2082H8.74984C4.37484 2.91666 2.9165 5.52708 2.9165 8.75V10.2083Z" stroke="white" stroke-width="1.5" stroke-miterlimit="10" stroke-linecap="round" stroke-linejoin="round"/>
<path d="M9.11475 14.5833H17.1356" stroke="white" stroke-width="1.5" stroke-linecap="round" stroke-linejoin="round"/>
</svg>