<svg width="35" height="35" viewBox="0 0 35 35" fill="none" xmlns="http://www.w3.org/2000/svg">
<path d="M32.0832 17.5V24.7917C32.0832 29.1667 29.1665 32.0833 24.7915 32.0833H10.2082C5.83317 32.0833 2.9165 29.1667 2.9165 24.7917V17.5C2.9165 13.5333 5.30817 10.7625 9.02692 10.2958C9.40609 10.2375 9.79984 10.2083 10.2082 10.2083H24.7915C25.1707 10.2083 25.5353 10.2229 25.8853 10.2812C29.6478 10.7187 32.0832 13.5042 32.0832 17.5Z" stroke="white" stroke-width="1.5" stroke-linecap="round" stroke-linejoin="round"/>
<path d="M25.8876 10.2812C25.5376 10.2229 25.173 10.2083 24.7939 10.2083H10.2105C9.80221 10.2083 9.40846 10.2375 9.0293 10.2958C9.23346 9.88751 9.52513 9.50835 9.87513 9.15835L14.6147 4.40416C16.6126 2.42083 19.8501 2.42083 21.848 4.40416L24.4001 6.98544C25.3335 7.90419 25.8293 9.07083 25.8876 10.2812Z" stroke="white" stroke-width="1.5" stroke-linecap="round" stroke-linejoin="round"/>
<path d="M32.0832 18.2292H27.7082C26.104 18.2292 24.7915 19.5417 24.7915 21.1458C24.7915 22.75 26.104 24.0625 27.7082 24.0625H32.0832" stroke="white" stroke-width="1.5" stroke-linecap="round" stroke-linejoin="round"/>
</svg>
